<svg width="24" height="27" viewBox="0 0 24 27" fill="none" xmlns="http://www.w3.org/2000/svg">
<path d="M23.6601 18.8178C23.5309 18.5078 23.4018 18.171 23.2726 17.8868C23.066 17.4208 22.6516 16.5425 22.6516 16.5425C20.8671 12.6636 18.9438 8.73942 16.9376 4.85509C16.7611 4.51391 16.4468 3.89827 16.2391 3.48497C15.9808 3.02001 15.7225 2.52815 15.3081 2.06319C14.4815 1.02888 13.2922 0.459518 12.0254 0.459518C10.7328 0.459518 9.5693 1.02888 8.7158 2.01045C8.32726 2.47649 8.04312 2.96728 7.78481 3.43331C7.57816 3.84661 7.0863 4.80343 7.0863 4.80343C5.09516 8.68238 3.15568 12.6119 1.37227 16.4909C1.37227 16.4909 0.958975 17.396 0.751251 17.861C0.622096 18.1451 0.492941 18.4562 0.363786 18.792C0.0279836 19.7488 -0.0753403 20.654 0.0538145 21.585C0.337955 23.5244 1.63058 25.1529 3.41507 25.8772C4.08668 26.1613 4.78519 26.2905 5.50953 26.2905C5.71618 26.2905 5.97449 26.2647 6.18221 26.2388C7.03571 26.1355 7.91504 25.8514 8.76746 25.3595C9.82761 24.7643 10.8361 23.9119 11.9737 22.6709C13.1114 23.9119 14.1457 24.7654 15.18 25.3595C16.0335 25.8514 16.9128 26.1355 17.7653 26.2388C17.9719 26.2647 18.2302 26.2905 18.4379 26.2905C19.1623 26.2905 19.8855 26.1613 20.5324 25.8761C22.3427 25.1518 23.6095 23.4975 23.8937 21.5839C24.1003 20.6798 23.997 19.7746 23.6601 18.8178ZM11.9996 20.1621C10.6036 18.4034 9.69846 16.7492 9.38848 15.3522C9.25933 14.757 9.2335 14.2403 9.31099 13.7754C9.36265 13.3621 9.51764 12.9994 9.72429 12.6894C10.2151 11.9909 11.0427 11.5518 11.9996 11.5518C12.9564 11.5518 13.8099 11.9651 14.2748 12.6894C14.4815 12.9994 14.6365 13.3621 14.6881 13.7754C14.7656 14.2403 14.7398 14.7839 14.6106 15.3522C14.3007 16.7233 13.3955 18.3787 11.9996 20.1621ZM22.3158 21.3772C22.135 22.7215 21.2298 23.885 19.963 24.4027C19.342 24.661 18.6704 24.7385 17.9977 24.661C17.3509 24.5835 16.7051 24.3769 16.0324 23.9883C15.1014 23.4717 14.1704 22.6699 13.0845 21.4806C14.7915 19.3861 15.8258 17.4724 16.2132 15.7665C16.3941 14.9647 16.4199 14.2403 16.3424 13.5687C16.2391 12.9219 16.0066 12.3278 15.6439 11.8101C14.8431 10.6477 13.4988 9.975 11.9996 9.975C10.5003 9.975 9.15493 10.6735 8.35417 11.8112C7.99254 12.3278 7.75898 12.923 7.65566 13.5698C7.55233 14.2425 7.57816 14.9916 7.78481 15.7676C8.17228 17.4735 9.23242 19.413 10.9136 21.5075C9.85344 22.6968 8.89662 23.4986 7.96563 24.0152C7.29295 24.4027 6.64717 24.6104 6.00032 24.6879C5.30181 24.7654 4.6302 24.6621 4.03501 24.4296C2.76822 23.913 1.86306 22.7484 1.68224 21.4041C1.60475 20.7573 1.65641 20.1115 1.91472 19.3872C1.99221 19.1289 2.12137 18.8705 2.25052 18.5595C2.43134 18.1462 2.87154 17.2152 2.87154 17.2152C4.65603 13.3632 6.5686 9.43255 8.55974 5.60526C8.55974 5.60526 9.05053 4.64844 9.25825 4.26098C9.4649 3.84661 9.69738 3.45914 9.9826 3.12334C10.5261 2.50339 11.2494 2.16652 12.0512 2.16652C12.8531 2.16652 13.5763 2.50232 14.1199 3.12334C14.404 3.45914 14.6365 3.84768 14.8442 4.26098C15.0508 4.64844 15.3694 5.26839 15.5427 5.60526C17.5134 9.45516 19.4217 13.3879 21.2051 17.241C21.2051 17.241 21.5925 18.1462 21.8003 18.5595C21.9294 18.8695 22.0586 19.1289 22.1361 19.3872C22.3416 20.0588 22.4191 20.7056 22.3158 21.3772Z" fill="#E14A4A"/>
</svg>
