<svg width="21" height="27" viewBox="0 0 21 27" fill="none" xmlns="http://www.w3.org/2000/svg">
<path d="M6.64705 25.1899V19.8118C6.64705 19.0692 7.24902 18.4673 7.99159 18.4673H12.8319C13.5745 18.4673 14.1765 19.0692 14.1765 19.8118V25.1899M1 22.5009L1 3.18994C1 2.08538 1.89543 1.18994 3 1.18994L17.8235 1.18994C18.9281 1.18994 19.8235 2.08537 19.8235 3.18994V22.5009C19.8235 23.986 18.6196 25.1899 17.1344 25.1899H3.68907C2.20394 25.1899 1 23.986 1 22.5009Z" stroke="#A422D1" stroke-width="2" stroke-linecap="round" stroke-linejoin="round"/>
<path d="M6.64703 6.83699V4.95464H8.52938V6.83699H6.64703Z" fill="#A422D1"/>
<path d="M6.64703 10.6017V8.71935H8.52938V10.6017H6.64703Z" fill="#A422D1"/>
<path d="M6.64703 14.3664V12.484H8.52938V14.3664H6.64703Z" fill="#A422D1"/>
<path d="M12.2941 6.83699V4.95464H14.1765V6.83699H12.2941Z" fill="#A422D1"/>
<path d="M12.2941 10.6017V8.71935H14.1765V10.6017H12.2941Z" fill="#A422D1"/>
<path d="M12.2941 14.3664V12.484H14.1765V14.3664H12.2941Z" fill="#A422D1"/>
</svg>
