<svg width="24" height="25" viewBox="0 0 24 25" fill="none" xmlns="http://www.w3.org/2000/svg">
<path d="M20.6604 19.2347L21.8119 19.8263L20.6604 20.4179L20.3747 20.5647L20.228 20.8504L19.6364 22.0018L19.0448 20.8504L18.898 20.5647L18.6123 20.4179L17.4609 19.8263L18.6123 19.2347L18.898 19.0879L19.0448 18.8022L19.6364 17.6508L20.228 18.8022L20.3747 19.0879L20.6604 19.2347ZM6.94279 9.747L7.22846 9.60022L7.37524 9.31455L9.81818 4.55991L12.2611 9.31455L12.4079 9.60022L12.6936 9.747L17.4482 12.1899L12.6936 14.6329L12.4079 14.7797L12.2611 15.0653L9.81818 19.82L7.37524 15.0653L7.22846 14.7797L6.94279 14.6329L2.18815 12.1899L6.94279 9.747ZM20.0735 3.24133L20.3592 3.09455L20.5059 2.80888L20.7273 2.37809L20.9486 2.80888L21.0954 3.09455L21.3811 3.24133L21.8119 3.46267L21.3811 3.68401L21.0954 3.83079L20.9486 4.11646L20.7273 4.54725L20.5059 4.11646L20.3592 3.83079L20.0735 3.68401L19.6427 3.46267L20.0735 3.24133Z" stroke="#22A7D1" stroke-width="2"/>
</svg>
