<svg width="24" height="25" viewBox="0 0 24 25" fill="none" xmlns="http://www.w3.org/2000/svg">
<path d="M12.4651 10.1917L16.3541 12.1899L12.4651 14.1881L12.0366 14.4083L11.8164 14.8368L9.81818 18.7259L7.81998 14.8368L7.59981 14.4083L7.17129 14.1881L3.28222 12.1899L7.17129 10.1917L7.59981 9.97156L7.81998 9.54305L9.81818 5.65398L11.8164 9.54305L12.0366 9.97156L12.4651 10.1917ZM20.4319 19.6794L20.7178 19.8263L20.4319 19.9732L20.0034 20.1933L19.7832 20.6219L19.6364 20.9077L19.4895 20.6219L19.2693 20.1933L18.8408 19.9732L18.555 19.8263L18.8408 19.6794L19.2693 19.4593L19.4895 19.0307L19.6364 18.7449L19.7832 19.0307L20.0034 19.4593L20.4319 19.6794Z" stroke="#22A7D1" stroke-width="3"/>
</svg>
