<svg width="26" height="27" viewBox="0 0 26 27" fill="none" xmlns="http://www.w3.org/2000/svg">
<ellipse cx="13.104" cy="3.48807" rx="2.50435" ry="2.50435" fill="#D7DB24"/>
<path d="M1.10715 25.4152C0.913229 25.9323 1.17523 26.5087 1.69235 26.7027C2.20948 26.8966 2.78589 26.6346 2.97981 26.1174L1.10715 25.4152ZM6.11024 17.7696C6.30416 17.2525 6.04216 16.6761 5.52504 16.4822C5.00792 16.2882 4.4315 16.5503 4.23758 17.0674L6.11024 17.7696ZM11.3913 19.5055C11.3913 18.9532 10.9436 18.5055 10.3913 18.5055C9.83902 18.5055 9.3913 18.9532 9.3913 19.5055H11.3913ZM9.3913 25.7663C9.3913 26.3186 9.83902 26.7663 10.3913 26.7663C10.9436 26.7663 11.3913 26.3186 11.3913 25.7663H9.3913ZM1.5145 9.25666C1.04092 8.97251 0.426655 9.12607 0.142507 9.59966C-0.141641 10.0732 0.011924 10.6875 0.485504 10.9716L1.5145 9.25666ZM24.6382 22.9558L25.5326 22.5085L24.6382 22.9558ZM15.1652 22.8794L14.3652 22.2794L15.1652 22.8794ZM20.3407 15.9788L19.5407 15.3788L20.3407 15.9788ZM21.1879 16.0551L20.2935 16.5024L21.1879 16.0551ZM2.97981 26.1174L6.11024 17.7696L4.23758 17.0674L1.10715 25.4152L2.97981 26.1174ZM9.3913 19.5055V25.7663H11.3913V19.5055H9.3913ZM0.485504 10.9716L16.1377 20.3629L17.1667 18.648L1.5145 9.25666L0.485504 10.9716ZM19.5407 15.3788L14.3652 22.2794L15.9652 23.4794L21.1407 16.5788L19.5407 15.3788ZM15.5652 24.6794H24.191V22.6794H15.5652V24.6794ZM25.5326 22.5085L22.0823 15.6079L20.2935 16.5024L23.7438 23.403L25.5326 22.5085ZM24.191 24.6794C25.3061 24.6794 26.0313 23.5059 25.5326 22.5085L23.7438 23.403C23.5775 23.0705 23.8193 22.6794 24.191 22.6794V24.6794ZM14.3652 22.2794C13.6236 23.2682 14.3292 24.6794 15.5652 24.6794V22.6794C15.9772 22.6794 16.2124 23.1497 15.9652 23.4794L14.3652 22.2794ZM21.1407 16.5788C20.9177 16.8761 20.4597 16.8348 20.2935 16.5024L22.0823 15.6079C21.5836 14.6106 20.2097 14.4867 19.5407 15.3788L21.1407 16.5788Z" fill="#D7DB24"/>
<path d="M14.5625 14.288C14.5625 13.2445 13.773 10.3678 12.4756 9.07057C11.1782 7.77336 9.34776 8.02674 8.30473 9.07067C7.26227 10.114 6.21777 12.5489 6.21777 13.2446" stroke="#D7DB24" stroke-width="2" stroke-linecap="round"/>
</svg>
