<svg width="27" height="23" viewBox="0 0 27 23" fill="none" xmlns="http://www.w3.org/2000/svg">
<path d="M18.7086 8.09122L11.3954 1.5906C10.9062 1.15578 10.169 1.15577 9.67987 1.5906L2.36667 8.09122C1.81541 8.58123 1.5 9.28359 1.5 10.0212V18.9034C1.5 20.3295 2.65608 21.4856 4.08218 21.4856H7.95544M7.95544 21.4856V16.3212C7.95544 15.6082 8.53348 15.0301 9.24653 15.0301H11.8287C12.5418 15.0301 13.1198 15.6082 13.1198 16.3212V21.4856M7.95544 21.4856H13.1198M13.1198 21.4856H16.9931M16.9279 16.8711H25.5L22.3829 19.5824M25.5 14.3594L16.9279 14.3594L20.0451 11.6481" stroke="#DB6624" stroke-width="2" stroke-linecap="round" stroke-linejoin="round"/>
</svg>
