<svg width="27" height="30" viewBox="0 0 27 30" fill="none" xmlns="http://www.w3.org/2000/svg">
<path d="M16.5547 1.48714L9.60522 9.55859L3.35066 16.8028L0 20.1868V9.70899C0 9.10739 0.148918 8.55593 0.372295 8.02953C0.694951 7.27753 1.2658 6.65086 2.0104 6.22473L11.293 0.735141C12.5091 0.00820839 14.0479 0.00820839 15.2641 0.735141L16.5547 1.48714Z" fill="url(#paint0_linear_92_2074)"/>
<path d="M10.8462 16.8018L8.43869 27.7559L2.01039 24.046C1.41472 23.7201 0.943148 23.2188 0.620492 22.6673C0.223377 22.0407 0 21.3137 0 20.5618V20.2359L3.35066 16.8519C3.35066 16.8018 10.8462 16.8018 10.8462 16.8018Z" fill="url(#paint1_linear_92_2074)"/>
<path opacity="0.37" d="M0.0744591 10.461C0.0744591 9.03219 0.81905 7.6786 2.08485 6.97673L11.3922 1.48714C12.6084 0.760207 14.1472 0.760207 15.3634 1.48714L16.1576 1.93834L16.5796 1.46207L15.3386 0.735141C14.1224 0.00820839 12.5836 0.00820839 11.3674 0.735141L2.0104 6.14953C0.744591 6.87646 0 8.205 0 9.70899V20.237L0.0744591 20.1618V10.461Z" fill="url(#paint2_linear_92_2074)"/>
<path d="M5.63407 16.8018C4.49236 17.9548 2.06003 20.4615 0.595673 22.6423C0.223377 22.0407 0 21.3137 0 20.5618V20.2359L3.35066 16.8519C3.35066 16.8018 5.63407 16.8018 5.63407 16.8018Z" fill="#C64646"/>
<path d="M10.0518 28.7336L17.0013 20.6621L23.2558 13.3928L26.6065 10.0088V20.5618C26.6065 21.1634 26.4576 21.7149 26.2342 22.2413C25.9115 22.9933 25.3407 23.62 24.5961 24.0461L15.2887 29.4605C14.0725 30.1874 12.5337 30.1874 11.3176 29.4605L10.0518 28.7336Z" fill="url(#paint3_linear_92_2074)"/>
<path d="M15.7607 13.3426L18.1931 2.41357L24.6214 6.1485C25.217 6.47437 25.6886 6.9757 26.0113 7.52717C26.4084 8.15383 26.6318 8.88076 26.6318 9.65783V9.98369L23.2811 13.3928L15.7607 13.3426Z" fill="url(#paint4_linear_92_2074)"/>
<path opacity="0.37" d="M26.5316 19.7849C26.5316 21.2137 25.787 22.5673 24.5212 23.2692L15.2138 28.6836C13.9977 29.4105 12.4589 29.4105 11.2427 28.6836L10.4981 28.2324L10.0762 28.7087L11.3172 29.4356C12.5333 30.1625 14.0721 30.1625 15.2883 29.4356L24.5957 24.0212C25.8119 23.2943 26.6061 21.9657 26.6061 20.5369V9.98389L26.5316 10.0591V19.7849Z" fill="url(#paint5_linear_92_2074)"/>
<path d="M20.9971 13.3418C22.1388 12.1888 24.5711 9.6821 26.0355 7.52637C26.4326 8.15303 26.656 8.87996 26.656 9.65703V9.9829L23.3053 13.392L20.9971 13.3418Z" fill="#C64646"/>
<defs>
<linearGradient id="paint0_linear_92_2074" x1="-8.17059" y1="25.144" x2="18.3124" y2="-6.84691" gradientUnits="userSpaceOnUse">
<stop offset="0.2101" stop-color="#F45959"/>
<stop offset="0.9073" stop-color="#FFCE50"/>
</linearGradient>
<linearGradient id="paint1_linear_92_2074" x1="25.9798" y1="2.01877" x2="-8.22563" y2="35.8873" gradientUnits="userSpaceOnUse">
<stop offset="0.2101" stop-color="#F45959"/>
<stop offset="0.9073" stop-color="#FFCE50"/>
</linearGradient>
<linearGradient id="paint2_linear_92_2074" x1="8.59494" y1="13.5706" x2="7.3273" y2="2.48875" gradientUnits="userSpaceOnUse">
<stop offset="0.000671548" stop-color="#F45959" stop-opacity="0"/>
<stop offset="1" stop-color="#F45959"/>
</linearGradient>
<linearGradient id="paint3_linear_92_2074" x1="7.78895" y1="38.3549" x2="34.2719" y2="6.36398" gradientUnits="userSpaceOnUse">
<stop offset="0.2101" stop-color="#F45959"/>
<stop offset="0.9073" stop-color="#FFCE50"/>
</linearGradient>
<linearGradient id="paint4_linear_92_2074" x1="26.2718" y1="2.31343" x2="-7.93369" y2="36.1819" gradientUnits="userSpaceOnUse">
<stop offset="0.2101" stop-color="#F45959"/>
<stop offset="0.9073" stop-color="#FFCE50"/>
</linearGradient>
<linearGradient id="paint5_linear_92_2074" x1="11.5702" y1="32.515" x2="28.7218" y2="14.0766" gradientUnits="userSpaceOnUse">
<stop offset="0.000671548" stop-color="#F45959" stop-opacity="0"/>
<stop offset="1" stop-color="#F45959"/>
</linearGradient>
</defs>
</svg>
