<svg width="155" height="36" viewBox="0 0 155 36" fill="none" xmlns="http://www.w3.org/2000/svg">
<g clip-path="url(#clip0_1_27)">
<path d="M48.6895 3.43408V6.65079H42.054V10.1355H47.0675V13.2629H42.054V19.9346H38.0728V3.43408H48.6895Z" fill="black"/>
<path d="M53.4965 2.54053V19.9643H49.5152V2.54053H53.4965Z" fill="black"/>
<path d="M55.089 9.8378C55.6198 8.82513 56.2981 8.05074 57.1534 7.48484C58.0086 6.91894 59.0113 6.65088 60.073 6.65088C60.9872 6.65088 61.7834 6.82958 62.4912 7.21678C63.1695 7.60398 63.7003 8.08053 64.0837 8.706V6.82958H68.065V19.9347H64.0542V18.0583C63.6708 18.654 63.1105 19.1603 62.4027 19.5475C61.695 19.9347 60.8987 20.1134 59.9845 20.1134C58.9523 20.1134 57.9496 19.8453 57.0944 19.2794C56.2391 18.7135 55.5314 17.9391 55.03 16.8967C54.4992 15.8542 54.2632 14.6629 54.2632 13.3226C54.2927 12.0121 54.5582 10.8207 55.089 9.8378ZM63.2285 10.9994C62.6682 10.4335 62.0194 10.1356 61.1936 10.1356C60.3679 10.1356 59.7191 10.4335 59.1587 10.9994C58.5984 11.5653 58.333 12.3397 58.333 13.3523C58.333 14.365 58.5984 15.1394 59.1587 15.7351C59.7191 16.301 60.3679 16.5988 61.1936 16.5988C62.0194 16.5988 62.6682 16.301 63.2285 15.7351C63.7888 15.1692 64.0542 14.3948 64.0542 13.3523C64.0542 12.3993 63.7888 11.5653 63.2285 10.9994Z" fill="black"/>
<path d="M71.8988 19.5475C70.9846 19.1603 70.3063 18.6242 69.7755 17.9391C69.2446 17.2541 68.9497 16.5095 68.9202 15.6457H72.8425C72.872 16.0925 73.1079 16.4797 73.4913 16.7478C73.8747 17.0158 74.3171 17.1945 74.8774 17.1945C75.4082 17.1945 75.7326 17.1052 76.0275 16.8967C76.293 16.6882 76.4109 16.4499 76.4109 16.1223C76.4109 15.7351 76.2045 15.467 75.8211 15.2883C75.4377 15.1096 74.7889 14.9011 73.9337 14.6926C72.99 14.4842 72.2232 14.2459 71.6039 14.0076C71.0141 13.7395 70.4538 13.4119 70.0114 12.8758C69.569 12.3397 69.3331 11.6546 69.3331 10.7313C69.3331 9.98672 69.5395 9.30168 69.9229 8.67621C70.3653 8.08053 70.9551 7.57419 71.7219 7.187C72.5476 6.82959 73.4913 6.65088 74.553 6.65088C76.2045 6.65088 77.4726 7.03808 78.3868 7.87204C79.3305 8.706 79.8614 9.77823 80.0383 11.1483H76.3814C76.3519 10.7015 76.116 10.3143 75.7916 10.0463C75.4377 9.77823 75.0248 9.65909 74.4645 9.65909C73.9927 9.65909 73.6388 9.74845 73.3734 9.92715C73.1079 10.1059 72.99 10.3739 72.99 10.6718C72.99 11.059 73.1964 11.327 73.5798 11.5057C73.9632 11.6844 74.5825 11.8929 75.4377 12.0716C76.3814 12.3397 77.2072 12.5482 77.797 12.8162C78.3868 13.0843 78.9176 13.4715 79.3895 13.9778C79.8614 14.4842 80.0678 15.2288 80.0678 16.1521C80.0678 16.9265 79.8613 17.5817 79.419 18.2072C78.9766 18.8029 78.3868 19.3092 77.5611 19.6368C76.7353 19.9942 75.8506 20.173 74.7594 20.173C73.7862 20.1432 72.813 19.9347 71.8988 19.5475Z" fill="black"/>
<path d="M92.9259 8.16976C93.8401 9.18243 94.253 10.5227 94.253 12.2502V19.9048H90.2717V12.8161C90.2717 11.9524 90.0652 11.2375 89.5934 10.761C89.151 10.2844 88.5612 10.0164 87.7945 10.0164C87.0277 10.0164 86.4084 10.2844 85.9955 10.761C85.5531 11.2375 85.3172 11.9226 85.3172 12.8161V19.9643H81.3359V2.54053H85.3172V8.58674C85.7006 8.02084 86.2609 7.54429 86.9687 7.18688C87.647 6.82947 88.4432 6.65076 89.328 6.65076C90.832 6.68055 92.0411 7.1571 92.9259 8.16976Z" fill="black"/>
<path d="M110.266 8.64633C109.972 8.08043 109.529 7.69323 109.028 7.39539C108.468 7.09754 107.819 6.94862 107.081 6.94862C105.784 6.94862 104.752 7.39539 103.985 8.19956C103.218 9.06331 102.835 10.1951 102.835 11.6545C102.835 13.1735 103.218 14.3649 104.044 15.2287C104.87 16.0924 105.99 16.4796 107.406 16.4796C108.409 16.4796 109.205 16.2115 109.913 15.735C110.591 15.1989 111.063 14.5138 111.387 13.5607H106.344V10.6121H115.014V14.3649C114.72 15.3776 114.248 16.2711 113.51 17.1646C112.832 18.0284 111.918 18.7432 110.827 19.2495C109.736 19.7857 108.497 20.0239 107.17 20.0239C105.577 20.0239 104.103 19.6665 102.864 18.9219C101.626 18.2369 100.623 17.2242 99.8857 15.9733C99.1484 14.7223 98.7945 13.2629 98.7945 11.6248C98.7945 10.0164 99.1484 8.52719 99.8857 7.27625C100.564 6.02531 101.567 5.01264 102.805 4.26804C104.044 3.583 105.489 3.16602 107.111 3.16602C109.057 3.16602 110.738 3.64256 112.065 4.59566C113.392 5.54876 114.307 6.85927 114.749 8.55698H110.296L110.266 8.64633Z" fill="black"/>
<path d="M128.728 6.82959V19.9347H124.747V18.1476C124.363 18.7135 123.803 19.1901 123.095 19.5475C122.417 19.9049 121.621 20.0836 120.824 20.0836C119.822 20.0836 118.966 19.8751 118.2 19.4284C117.433 18.9816 116.872 18.3263 116.43 17.4626C115.988 16.6286 115.781 15.6457 115.781 14.4544V6.82959H119.763V13.9778C119.763 14.8416 119.969 15.5564 120.441 16.0329C120.883 16.5095 121.473 16.7775 122.24 16.7775C123.007 16.7775 123.626 16.5095 124.098 16.0329C124.57 15.5564 124.776 14.8714 124.776 13.9778V6.82959H128.728Z" fill="black"/>
<path d="M143.562 6.82959L135.422 26.1596H131.146L134.125 19.4879L128.816 6.82959H133.269L136.277 15.0203L139.256 6.82959H143.562Z" fill="black"/>
<path d="M145.98 19.5475C145.066 19.1603 144.387 18.6242 143.857 17.9391C143.326 17.2541 143.031 16.5095 143.001 15.6457H146.924C146.953 16.0925 147.189 16.4797 147.572 16.7478C147.956 17.0158 148.398 17.1945 148.959 17.1945C149.489 17.1945 149.814 17.1052 150.109 16.8967C150.374 16.6882 150.492 16.4499 150.492 16.1223C150.492 15.7351 150.286 15.467 149.932 15.2883C149.548 15.1096 148.9 14.9011 148.044 14.6926C147.101 14.4842 146.334 14.2459 145.715 14.0076C145.125 13.7395 144.564 13.4119 144.122 12.8758C143.68 12.3397 143.444 11.6546 143.444 10.7313C143.444 9.98672 143.65 9.30168 144.034 8.67621C144.476 8.08053 145.066 7.57419 145.833 7.187C146.658 6.82959 147.602 6.65088 148.664 6.65088C150.315 6.65088 151.583 7.03808 152.497 7.87204C153.441 8.706 153.972 9.77823 154.149 11.1483H150.492C150.463 10.7015 150.227 10.3143 149.902 10.0463C149.548 9.77823 149.136 9.65909 148.575 9.65909C148.103 9.65909 147.749 9.74845 147.484 9.92715C147.219 10.1059 147.101 10.3739 147.101 10.6718C147.101 11.059 147.307 11.327 147.69 11.5057C148.074 11.6844 148.693 11.8929 149.548 12.0716C150.492 12.3397 151.318 12.5482 151.908 12.8162C152.497 13.0843 153.028 13.4715 153.5 13.9778C153.972 14.5139 154.178 15.2288 154.178 16.1521C154.178 16.9265 153.972 17.5817 153.53 18.2072C153.087 18.8029 152.497 19.3092 151.672 19.6368C150.846 19.9942 149.961 20.173 148.87 20.173C147.867 20.1432 146.865 19.9347 145.98 19.5475Z" fill="black"/>
<path d="M19.6704 1.82747L11.413 11.418L3.98127 20.0257L0 24.0466V11.5967C0 10.8819 0.176945 10.2266 0.442364 9.60118C0.825745 8.70765 1.50404 7.96304 2.38876 7.45671L13.4184 0.933942C14.8634 0.0701966 16.6919 0.0701966 18.1369 0.933942L19.6704 1.82747Z" fill="url(#paint0_linear_1_27)"/>
<path d="M12.8875 20.0244L10.0269 33.0402L2.38876 28.6321C1.68098 28.2449 1.12065 27.6492 0.737273 26.9939C0.265418 26.2493 0 25.3856 0 24.4921V24.1049L3.98127 20.084C3.98127 20.0244 12.8875 20.0244 12.8875 20.0244Z" fill="url(#paint1_linear_1_27)"/>
<path opacity="0.37" d="M0.0884727 12.4903C0.0884727 10.7925 0.9732 9.1842 2.47724 8.35024L13.5363 1.82747C14.9814 0.963726 16.8098 0.963726 18.2549 1.82747L19.1986 2.36359L19.6999 1.79769L18.2254 0.933942C16.7803 0.0701966 14.9519 0.0701966 13.5068 0.933942L2.38876 7.36735C0.884727 8.2311 0 9.80967 0 11.5967V24.1061L0.0884727 24.0168V12.4903Z" fill="url(#paint2_linear_1_27)"/>
<path d="M6.69443 20.0244C5.33785 21.3945 2.44774 24.3729 0.707782 26.9642C0.265418 26.2493 0 25.3856 0 24.4921V24.1049L3.98127 20.084C3.98127 20.0244 6.69443 20.0244 6.69443 20.0244Z" fill="#C64646"/>
<path d="M11.9438 34.202L20.2012 24.6115L27.6329 15.974L31.6142 11.9531V24.4923C31.6142 25.2071 31.4373 25.8624 31.1719 26.4879C30.7885 27.3814 30.1102 28.126 29.2255 28.6323L18.1664 35.0658C16.7213 35.9295 14.8929 35.9295 13.4478 35.0658L11.9438 34.202Z" fill="url(#paint3_linear_1_27)"/>
<path d="M18.7267 15.9142L21.6168 2.92822L29.2549 7.36609C29.9627 7.75328 30.523 8.34897 30.9064 9.00422C31.3783 9.74883 31.6437 10.6126 31.6437 11.5359V11.9231L27.6624 15.9738L18.7267 15.9142Z" fill="url(#paint4_linear_1_27)"/>
<path opacity="0.37" d="M31.5257 23.569C31.5257 25.2667 30.641 26.8751 29.137 27.709L18.0779 34.1424C16.6328 35.0062 14.8044 35.0062 13.3593 34.1424L12.4746 33.6063L11.9733 34.1722L13.4478 35.036C14.8929 35.8997 16.7213 35.8997 18.1664 35.036L29.2254 28.6026C30.6705 27.7388 31.6142 26.1602 31.6142 24.4625V11.9233L31.5257 12.0127V23.569Z" fill="url(#paint5_linear_1_27)"/>
<path d="M24.9493 15.9139C26.3059 14.5438 29.196 11.5654 30.9359 9.00391C31.4078 9.74851 31.6732 10.6123 31.6732 11.5356V11.9228L27.6919 15.9734L24.9493 15.9139Z" fill="#C64646"/>
<path d="M38.2792 26.4282C38.5741 25.8921 38.9574 25.4751 39.4588 25.1772C39.9601 24.8794 40.55 24.7305 41.1988 24.7305C42.054 24.7305 42.7323 24.939 43.2926 25.3559C43.8529 25.7729 44.2068 26.3388 44.3838 27.0834H43.1452C43.0272 26.6664 42.7913 26.3388 42.4669 26.0708C42.1425 25.8027 41.7001 25.7134 41.1988 25.7134C40.55 25.7134 40.0191 25.9516 39.6062 26.3984C39.1934 26.8452 39.0164 27.5004 39.0164 28.3344C39.0164 29.1683 39.2229 29.8236 39.6062 30.2703C40.0191 30.7171 40.55 30.9554 41.1988 30.9554C41.7001 30.9554 42.113 30.8363 42.4669 30.598C42.7913 30.3597 43.0272 30.0321 43.1452 29.5853H44.3838C44.2068 30.3001 43.8234 30.866 43.2631 31.283C42.7028 31.7 42.0245 31.9383 41.1988 31.9383C40.55 31.9383 39.9601 31.7894 39.4588 31.4915C38.9574 31.1937 38.5446 30.7767 38.2792 30.2406C37.9842 29.7044 37.8368 29.0492 37.8368 28.3344C37.8663 27.5898 38.0137 26.9643 38.2792 26.4282Z" fill="black"/>
<path d="M52.1105 22.3774V31.7893H50.9603V22.3774H52.1105Z" fill="black"/>
<path d="M65.3518 28.7513H59.837C59.8665 29.4364 60.1024 29.9725 60.5448 30.3597C60.9576 30.7469 61.4885 30.9256 62.0783 30.9256C62.5796 30.9256 62.9925 30.8065 63.3169 30.5682C63.6413 30.3299 63.8772 30.0321 64.0247 29.6449H65.2633C65.0864 30.3001 64.703 30.866 64.1427 31.283C63.5823 31.7 62.904 31.9085 62.0783 31.9085C61.4295 31.9085 60.8397 31.7596 60.3088 31.4617C59.778 31.1639 59.3946 30.7469 59.0997 30.2108C58.8048 29.6747 58.6573 29.0194 58.6573 28.3046C58.6573 27.5898 58.8048 26.9643 59.0997 26.3984C59.3946 25.8623 59.778 25.4453 60.3088 25.1474C60.8397 24.8496 61.4295 24.7007 62.0783 24.7007C62.7271 24.7007 63.3169 24.8496 63.8183 25.1474C64.3196 25.4453 64.703 25.8325 64.9684 26.3388C65.2338 26.8452 65.3813 27.4111 65.3813 28.0365C65.3813 28.2748 65.3813 28.5131 65.3518 28.7513ZM63.9067 26.6664C63.7003 26.3388 63.4644 26.1005 63.1105 25.9516C62.7861 25.7729 62.4027 25.7134 62.0193 25.7134C61.4295 25.7134 60.9576 25.8921 60.5448 26.2793C60.1319 26.6664 59.896 27.1728 59.837 27.828H64.2016C64.2016 27.3515 64.1132 26.9941 63.9067 26.6664Z" fill="black"/>
<path d="M71.9283 26.4282C72.2232 25.8921 72.6066 25.4751 73.1079 25.1772C73.6093 24.8794 74.1696 24.7305 74.7889 24.7305C75.3788 24.7305 75.9096 24.8496 76.3519 25.1177C76.7943 25.3857 77.1187 25.7134 77.3546 26.1005V24.8198H78.5048V31.7894H77.3546V30.4788C77.1187 30.8958 76.7943 31.2234 76.3519 31.4915C75.9096 31.7596 75.3788 31.8787 74.7889 31.8787C74.1696 31.8787 73.6093 31.7298 73.1374 31.4319C72.6361 31.1341 72.2527 30.6873 71.9578 30.1512C71.6629 29.6151 71.5154 28.9598 71.5154 28.2748C71.5154 27.5898 71.6334 26.9643 71.9283 26.4282ZM77.0302 26.9345C76.8238 26.5473 76.5289 26.2495 76.175 26.041C75.8211 25.8325 75.4377 25.7431 74.9954 25.7431C74.553 25.7431 74.1696 25.8325 73.8157 26.041C73.4618 26.2495 73.1964 26.5473 72.9605 26.9345C72.7541 27.3217 72.6361 27.7685 72.6361 28.3046C72.6361 28.8407 72.7541 29.3173 72.9605 29.7044C73.1669 30.0916 73.4618 30.3895 73.8157 30.598C74.1696 30.8065 74.553 30.8958 74.9954 30.8958C75.4377 30.8958 75.8211 30.8065 76.175 30.598C76.5289 30.3895 76.8238 30.0916 77.0302 29.7044C77.2367 29.3173 77.3546 28.8407 77.3546 28.3344C77.3546 27.7685 77.2367 27.3217 77.0302 26.9345Z" fill="black"/>
<path d="M90.8614 25.4751C91.3923 25.9814 91.6282 26.726 91.6282 27.6791V31.7893H90.537V27.8578C90.537 27.1728 90.3601 26.6367 90.0062 26.2495C89.6523 25.8921 89.1805 25.6836 88.5906 25.6836C88.0008 25.6836 87.4995 25.8623 87.1456 26.2495C86.7917 26.6367 86.6148 27.1728 86.6148 27.9174V31.7596H85.4646V24.8198H86.6148V25.8027C86.8507 25.4453 87.1456 25.1772 87.529 24.9687C87.9123 24.7603 88.3547 24.6709 88.8266 24.6709C89.6818 24.7007 90.3601 24.9687 90.8614 25.4751Z" fill="black"/>
<path d="M98.6176 23.4795C98.4702 23.3305 98.3817 23.1518 98.3817 22.9136C98.3817 22.7051 98.4702 22.4966 98.6176 22.3476C98.7651 22.1987 98.942 22.1094 99.178 22.1094C99.3844 22.1094 99.5614 22.1987 99.7088 22.3476C99.8563 22.4966 99.9152 22.6753 99.9152 22.9136C99.9152 23.122 99.8563 23.3305 99.7088 23.4795C99.5614 23.6284 99.3844 23.7177 99.178 23.7177C98.942 23.6879 98.7651 23.6284 98.6176 23.4795ZM99.7088 24.8197V31.7893H98.5587V24.8197H99.7088Z" fill="black"/>
<path d="M112.095 25.4751C112.626 25.9814 112.862 26.726 112.862 27.6791V31.7893H111.741V27.8578C111.741 27.1728 111.564 26.6367 111.21 26.2495C110.856 25.8921 110.384 25.6836 109.795 25.6836C109.205 25.6836 108.703 25.8623 108.35 26.2495C107.996 26.6367 107.819 27.1728 107.819 27.9174V31.7596H106.669V24.8198H107.819V25.8027C108.055 25.4453 108.35 25.1772 108.733 24.9687C109.116 24.7603 109.559 24.6709 110.031 24.6709C110.886 24.7007 111.564 24.9687 112.095 25.4751Z" fill="black"/>
<path d="M124.186 25.1177C124.629 25.3857 124.982 25.7134 125.189 26.1005V24.8198H126.339V31.9383C126.339 32.5637 126.192 33.1296 125.926 33.636C125.661 34.1423 125.277 34.5295 124.776 34.7976C124.275 35.0656 123.685 35.2145 123.036 35.2145C122.122 35.2145 121.385 35.0061 120.765 34.5593C120.175 34.1125 119.792 33.5466 119.704 32.802H120.824C120.942 33.219 121.208 33.5764 121.591 33.8147C121.974 34.0827 122.446 34.2019 123.007 34.2019C123.626 34.2019 124.157 33.9934 124.54 33.6062C124.953 33.219 125.13 32.6531 125.13 31.9383V30.4788C124.894 30.8958 124.57 31.2234 124.127 31.4915C123.685 31.7596 123.154 31.9085 122.564 31.9085C121.945 31.9085 121.385 31.7596 120.883 31.4617C120.382 31.1639 119.999 30.7171 119.704 30.181C119.409 29.6449 119.261 28.9896 119.261 28.3046C119.261 27.5898 119.409 26.9643 119.704 26.4282C119.999 25.8921 120.382 25.4751 120.883 25.1772C121.385 24.8794 121.945 24.7305 122.564 24.7305C123.243 24.7305 123.744 24.8496 124.186 25.1177ZM124.894 26.9345C124.688 26.5473 124.393 26.2495 124.039 26.041C123.685 25.8325 123.301 25.7431 122.859 25.7431C122.417 25.7431 122.033 25.8325 121.679 26.041C121.326 26.2495 121.06 26.5473 120.824 26.9345C120.618 27.3217 120.5 27.7685 120.5 28.3046C120.5 28.8407 120.618 29.3173 120.824 29.7044C121.031 30.0916 121.326 30.3895 121.679 30.598C122.033 30.8065 122.417 30.8958 122.859 30.8958C123.301 30.8958 123.685 30.8065 124.039 30.598C124.393 30.3895 124.688 30.0916 124.894 29.7044C125.1 29.3173 125.218 28.8407 125.218 28.3344C125.189 27.7685 125.1 27.3217 124.894 26.9345Z" fill="black"/>
</g>
<defs>
<linearGradient id="paint0_linear_1_27" x1="-9.70835" y1="29.9367" x2="21.7588" y2="-8.0751" gradientUnits="userSpaceOnUse">
<stop offset="0.2101" stop-color="#F45959"/>
<stop offset="0.9073" stop-color="#FFCE50"/>
</linearGradient>
<linearGradient id="paint1_linear_1_27" x1="30.8694" y1="2.45918" x2="-9.77374" y2="42.7019" gradientUnits="userSpaceOnUse">
<stop offset="0.2101" stop-color="#F45959"/>
<stop offset="0.9073" stop-color="#FFCE50"/>
</linearGradient>
<linearGradient id="paint2_linear_1_27" x1="10.2126" y1="16.1851" x2="8.70635" y2="3.01759" gradientUnits="userSpaceOnUse">
<stop offset="0.000671548" stop-color="#F45959" stop-opacity="0"/>
<stop offset="1" stop-color="#F45959"/>
</linearGradient>
<linearGradient id="paint3_linear_1_27" x1="9.2551" y1="45.6341" x2="40.7223" y2="7.62234" gradientUnits="userSpaceOnUse">
<stop offset="0.2101" stop-color="#F45959"/>
<stop offset="0.9073" stop-color="#FFCE50"/>
</linearGradient>
<linearGradient id="paint4_linear_1_27" x1="31.2159" y1="2.80923" x2="-9.42718" y2="43.052" gradientUnits="userSpaceOnUse">
<stop offset="0.2101" stop-color="#F45959"/>
<stop offset="0.9073" stop-color="#FFCE50"/>
</linearGradient>
<linearGradient id="paint5_linear_1_27" x1="13.7484" y1="38.6949" x2="34.1281" y2="16.7864" gradientUnits="userSpaceOnUse">
<stop offset="0.000671548" stop-color="#F45959" stop-opacity="0"/>
<stop offset="1" stop-color="#F45959"/>
</linearGradient>
<clipPath id="clip0_1_27">
<rect width="154.178" height="35.4274" fill="white" transform="translate(0 0.286133)"/>
</clipPath>
</defs>
</svg>
